<?xml version="1.0" encoding="utf-8"?><svg xmlns="http://www.w3.org/2000/svg" xmlns:xlink="http://www.w3.org/1999/xlink"><symbol viewBox="0 0 48 48" id="about" xmlns="http://www.w3.org/2000/svg"><path fill="#2196F3" d="M37 40H11l-6 6V12c0-3.3 2.7-6 6-6h26c3.3 0 6 2.7 6 6v22c0 3.3-2.7 6-6 6z"/><g fill="#fff"><path d="M22 20h4v11h-4z"/><circle cx="24" cy="15" r="2"/></g></symbol><symbol viewBox="0 0 48 48" id="address_book" xmlns="http://www.w3.org/2000/svg"><path fill="#673AB7" d="M38 44H12V4h26c2.2 0 4 1.8 4 4v32c0 2.2-1.8 4-4 4z"/><path fill="#311B92" d="M10 4h2v40h-2c-2.2 0-4-1.8-4-4V8c0-2.2 1.8-4 4-4z"/><path fill="#fff" d="M36 24.2c-.1 4.8-3.1 6.9-5.3 6.7-.6-.1-2.1-.1-2.9-1.6-.8 1-1.8 1.6-3.1 1.6-2.6 0-3.3-2.5-3.4-3.1-.1-.7-.2-1.4-.1-2.2.1-1 1.1-6.5 5.7-6.5 2.2 0 3.5 1.1 3.7 1.3l-.6 6.8c0 .3-.2 1.6 1.1 1.6 2.1 0 2.4-3.9 2.4-4.6.1-1.2.3-8.2-7-8.2-6.9 0-7.9 7.4-8 9.2-.5 8.5 6 8.5 7.2 8.5 1.7 0 3.7-.7 3.9-.8l.4 2c-.3.2-2 1.1-4.4 1.1-2.2 0-10.1-.4-9.8-10.8.3-2.1 1.6-11.2 10.8-11.2 9.2 0 9.4 8.1 9.4 10.2zm-11.9 1.3c-.1 1 0 1.8.2 2.3.2.5.6.8 1.2.8.1 0 .3 0 .4-.1.2-.1.3-.1.5-.3.2-.1.3-.3.5-.6.2-.2.3-.6.4-1l.5-5.4c-.2-.1-.5-.1-.7-.1-.5 0-.9.1-1.2.3-.3.2-.6.5-.9.8-.2.4-.4.8-.6 1.3s-.2 1.3-.3 2z"/></symbol><symbol viewBox="0 0 48 48" id="advertising" xmlns="http://www.w3.org/2000/svg"><g fill="#90CAF9"><path d="M17.4 33H15v-4h4l.4 1.5c.3 1.3-.7 2.5-2 2.5zM37 36s-11.8-7-18-7V15c5.8 0 18-7 18-7v28z"/></g><g fill="#283593"><circle cx="9" cy="22" r="5"/><path d="M40 19h-3v6h3c1.7 0 3-1.3 3-3s-1.3-3-3-3zM18.6 41.2c-.9.6-2.5 1.2-4.6 1.4-.6.1-1.2-.3-1.4-1L8.2 27.9S17 21.7 17 29c0 5.5 1.5 8.4 2.2 9.5.5.7.5 1.6 0 2.3-.2.2-.4.3-.6.4z"/></g><path fill="#3F51B5" d="M9 29h10V15H9c-1.1 0-2 .9-2 2v10c0 1.1.9 2 2 2z"/><path fill="#42A5F5" d="M38 38c-1.1 0-2-.9-2-2V8c0-1.1.9-2 2-2s2 .9 2 2v28c0 1.1-.9 2-2 2z"/></symbol><symbol viewBox="0 0 48 48" id="alarm_clock" xmlns="http://www.w3.org/2000/svg"><g fill="#37474F"><path d="M38.5 44.6l-4-4 2.1-2.1 4 4c.6.6.6 1.5 0 2.1-.5.5-1.5.5-2.1 0zM9.5 44.6l4-4-2.1-2.1-4 4c-.6.6-.6 1.5 0 2.1.5.5 1.5.5 2.1 0z"/></g><circle fill="#C62828" cx="24" cy="24" r="20"/><circle fill="#eee" cx="24" cy="24" r="16"/><path fill="#E53935" d="M15.096 33.48l-.566-.566 9.191-9.191.566.565z"/><path d="M23 11h2v13h-2z"/><path d="M31.285 29.654L29.66 31.28l-6.504-6.504 1.626-1.627z"/><circle cx="24" cy="24" r="2"/><circle fill="#C62828" cx="24" cy="24" r="1"/><path fill="#37474F" d="M22 1h4v3h-4z"/><g fill="#37474F"><path d="M44.4 16.2c2.5-3.5 2.1-8.4-1-11.5-3.1-3.1-8-3.5-11.5-1l12.5 12.5zM3.6 16.2c-2.5-3.5-2.1-8.4 1-11.5 3.1-3.1 8-3.5 11.5-1L3.6 16.2z"/></g></symbol><symbol viewBox="0 0 48 48" id="audio_file" xmlns="http://www.w3.org/2000/svg"><path fill="none" d="M204 0h48v48h-48z"/><path fill="#90CAF9" d="M244 45h-32V3h22l10 10z"/><path fill="#E1F5FE" d="M242.5 14H233V4.5z"/><g fill="#1976D2"><circle cx="227" cy="30" r="4"/><path d="M234 21l-5-2v11h2v-7.1l3 1.1z"/></g><path fill="#90CAF9" d="M40 45H8V3h22l10 10z"/><path fill="#E1F5FE" d="M38.5 14H29V4.5z"/><g fill="#1976D2"><circle cx="23" cy="30" r="4"/><path d="M30 21l-5-2v11h2v-7.1l3 1.1z"/></g></symbol><symbol viewBox="0 0 48 48" id="automatic" xmlns="http://www.w3.org/2000/svg"><path fill="#3F51B5" d="M39 43H9c-2.2 0-4-1.8-4-4V9c0-2.2 1.8-4 4-4h30c2.2 0 4 1.8 4 4v30c0 2.2-1.8 4-4 4z"/><path fill="#B3E5FC" d="M33.6 25.4c.1-.4.1-.9.1-1.4s0-.9-.1-1.4l2.8-2c.3-.2.4-.6.2-.9l-2.7-4.6c-.2-.3-.5-.4-.8-.3L30 16.3c-.7-.6-1.5-1-2.4-1.4l-.3-3.4c0-.3-.3-.6-.6-.6h-5.3c-.3 0-.6.3-.6.6l-.4 3.5c-.9.3-1.6.8-2.4 1.4L14.9 15c-.3-.1-.7 0-.8.3l-2.7 4.6c-.2.3-.1.7.2.9l2.8 2c-.1.4-.1.9-.1 1.4s0 .9.1 1.4l-2.8 2c-.3.2-.4.6-.2.9l2.7 4.6c.2.3.5.4.8.3L18 32c.7.6 1.5 1 2.4 1.4l.3 3.4c0 .3.3.6.6.6h5.3c.3 0 .6-.3.6-.6l.3-3.4c.9-.3 1.6-.8 2.4-1.4l3.1 1.4c.3.1.7 0 .8-.3l2.7-4.6c.2-.3.1-.7-.2-.9l-2.7-2.2zM24 29c-2.8 0-5-2.2-5-5s2.2-5 5-5 5 2.2 5 5-2.2 5-5 5z"/></symbol><symbol viewBox="0 0 48 48" id="biohazard" xmlns="http://www.w3.org/2000/svg"><path fill="#00A344" d="M24 13c-7.2 0-13 5.8-13 13s5.8 13 13 13 13-5.8 13-13-5.8-13-13-13zm0 22c-5 0-9-4-9-9s4-9 9-9 9 4 9 9-4 9-9 9z"/><path fill="#00C853" d="M8.5 25.4c4-2.2 9-1.1 11.5 2.5.1.1.2.1.3.1l1.2-.7c.1-.1.2-.2.1-.3 0-.2-.1-.4-.1-.6v-.2-.2-.2c0-.1 0-.1.1-.2 0-.1 0-.1.1-.2 0 0 0-.1.1-.1 0 0 0-.1.1-.1 0 0 0-.1.1-.1l.1-.1.1-.1.1-.1.1-.1.1-.1h.1c.2-.1.4-.2.5-.2.1 0 .2-.1.2-.3v-1.3c0-.1-.1-.2-.2-.2-4.5-.4-8-4.1-8-8.6 0-4.1 3-7.6 6.9-8.4.1 0 .2-.1.2-.3v-.5c0-.1-.1-.2-.2-.2-5.6.9-10 5.8-10 11.7 0 1.3.2 2.6.6 3.8-1.2.2-2.5.7-3.6 1.3-5.2 3-7.3 9.2-5.2 14.5.1.1.2.1.3.1l.3-.2c.1-.1.2-.2.1-.3-1.2-3.8.3-8.1 4-10.1zm30.5-4c-1.2-.7-2.4-1.1-3.6-1.3.4-1.2.6-2.4.6-3.8 0-5.9-4.4-10.8-10.2-11.7-.1 0-.2.1-.2.2v.4c0 .1.1.2.2.3 4 .8 6.9 4.3 6.9 8.4 0 4.5-3.5 8.2-8 8.6-.1 0-.2.1-.2.2V24c0 .1.1.2.2.3.2.1.4.1.6.2l.1.1c.1 0 .1.1.1.1l.3.3.1.1.1.1v.2s0 .1.1.1c0 .1 0 .1.1.2v.7c0 .2 0 .4-.1.6 0 .1 0 .2.1.3l1.2.7c.1.1.2 0 .3-.1 2.6-3.6 7.6-4.8 11.5-2.5 3.6 2.1 5.2 6.3 3.9 10.1 0 .1 0 .2.1.3l.3.2c.1.1.2 0 .3-.1 2.5-5.4.4-11.6-4.8-14.5zm-8.2 18.9c-4-2.2-5.5-7.1-3.5-11.1.1-.1 0-.2-.1-.3l-1.2-.7c-.1-.1-.2 0-.3 0-.2.1-.3.3-.5.3-.1 0-.1.1-.2.1s-.1 0-.2.1c-.1 0-.3.1-.4.1h-.2-.1-.1-.1-.1-.1-.5c-.1 0-.1 0-.2-.1 0 0-.1 0-.1-.1h-.1c-.2-.1-.3-.2-.5-.3-.1-.1-.2-.1-.3 0l-1.2.7c-.1.1-.1.2-.1.3 1.9 4 .4 8.8-3.5 11.1-3.6 2.1-8.2 1.3-10.9-1.7-.1-.1-.2-.1-.3-.1l-.3.2c-.1.1-.1.2-.1.3 3.6 4.5 10.2 5.8 15.4 2.8 1.2-.7 2.2-1.5 3-2.4.8.9 1.8 1.8 3 2.4 5.2 3 11.7 1.6 15.4-2.8.1-.1 0-.2-.1-.3l-.3-.3c-.1-.1-.2 0-.3.1-2.7 2.9-7.3 3.7-10.9 1.7z"/></symbol><symbol viewBox="0 0 48 48" id="briefcase" xmlns="http://www.w3.org/2000/svg"><path fill="#424242" d="M27 7h-6c-1.7 0-3 1.3-3 3v3h2v-3c0-.6.4-1 1-1h6c.6 0 1 .4 1 1v3h2v-3c0-1.7-1.3-3-3-3z"/><path fill="#E65100" d="M40 43H8c-2.2 0-4-1.8-4-4V15c0-2.2 1.8-4 4-4h32c2.2 0 4 1.8 4 4v24c0 2.2-1.8 4-4 4z"/><path fill="#FF6E40" d="M40 28H8c-2.2 0-4-1.8-4-4v-9c0-2.2 1.8-4 4-4h32c2.2 0 4 1.8 4 4v9c0 2.2-1.8 4-4 4z"/><path fill="#FFF3E0" d="M26 26h-4c-.6 0-1-.4-1-1v-2c0-.6.4-1 1-1h4c.6 0 1 .4 1 1v2c0 .6-.4 1-1 1z"/></symbol><symbol viewBox="0 0 48 48" id="close_up_mode" xmlns="http://www.w3.org/2000/svg"><path fill="#2E7D32" d="M5 24c0 18.9 14.8 19 17 19h4S24.1 26.5 5 24z"/><path fill="#388E3C" d="M22 26h4v17h-4z"/><path fill="#C62828" d="M34 16c0 5.1-5.2 8.2-8 8.2s-2-3.1-2-8.2 5-9.2 5-9.2 5 4.1 5 9.2z"/><path fill="#C62828" d="M14 16c0 5.1 5.2 8.2 8 8.2s2-3.1 2-8.2-5-9.2-5-9.2-5 4.1-5 9.2z"/><path fill="#E53935" d="M24 27c-2.2-1.6-1.9-4.5 2.4-8.8C30.8 13.8 32 7 32 7s5 3.4 5 9c0 5.9-5.7 11-13 11z"/><path fill="#E53935" d="M24 27c2.2-1.6 1.9-4.5-2.4-8.8C17.2 13.8 16 7 16 7s-5 3.4-5 9c0 5.9 5.7 11 13 11z"/><path fill="#F44336" d="M30 16c0 6.1-2.7 11-6 11s-6-4.9-6-11 6-11 6-11 6 4.9 6 11z"/><path fill="#4CAF50" d="M22 43h4c2.2 0 17-.1 17-19-19.1 2.5-21 19-21 19z"/></symbol></svg>